# xmcd
#
# Track frame offsets: 
#        150
#        14885
#        31702
#        47801
#        64865
#        78870
#        93346
#        108980
#        129713
#        148787
#        168851
#        189329
#
# Disc length: 2735 seconds
#
# Revision: 0
# Processed by: cddbd v1.5.2PL0 Copyright (c) Steve Scherf et al.
# Submitted via: ExactAudioCopy v0.99pb5
#
DISCID=9c0aad0c
DTITLE=Various Artist - Coast To Coast Ready To Dance The Night Away
DYEAR=2010
DGENRE=Beach
TTITLE0=Holiday Band - Jukebox
TTITLE1=Deidra - Ready To Dance The Night Away
TTITLE2=Fantasy - Dont Go
TTITLE3=Rhonda McDaniel - Touching In The Dark
TTITLE4=John and Julie Thompson - Fine Brown Frame
TTITLE5=Albert Rogers  Of Coastline - Real Love
TTITLE6=Jerry Wilson and The Jewels - Aint No Love In The Heart Of The C
TTITLE6=ity
TTITLE7=Andre Lee - One Night Stand
TTITLE8=The Marcels - Got To Give It Up
TTITLE9=Cherri Amore - Ive Had Enough
TTITLE10=R&B Bombers - Nine One One
TTITLE11=William Dell and Wee Jams - Ill Always Love You
EXTD=
EXTT0=
EXTT1=
EXTT2=
EXTT3=
EXTT4=
EXTT5=
EXTT6=
EXTT7=
EXTT8=
EXTT9=
EXTT10=
EXTT11=
PLAYORDER=
